<?xml version="1.0" standalone="no"?>
<!DOCTYPE svg PUBLIC "-//W3C//DTD SVG 20010904//EN"
 "http://www.w3.org/TR/2001/REC-SVG-20010904/DTD/svg10.dtd">
<svg version="1.0" xmlns="http://www.w3.org/2000/svg"
 width="546.000000pt" height="195.000000pt" viewBox="0 0 546.000000 195.000000"
 preserveAspectRatio="xMidYMid meet">

<g transform="translate(0.000000,195.000000) scale(0.100000,-0.100000)"
fill="#000000" stroke="none">
<path d="M460 1005 l0 -155 28 1 c23 2 24 2 5 6 -23 4 -23 7 -23 148 l0 144
28 4 c25 4 25 4 -5 6 l-33 1 0 -155z"/>
<path d="M973 1153 l27 -4 0 -144 0 -144 -27 -4 c-26 -4 -26 -4 5 -6 l32 -1 0
155 0 155 -32 -1 c-31 -2 -31 -2 -5 -6z"/>
</g>
</svg>
